<?xml version="1.0" encoding="UTF-8"?>
<svg id="Layer_1" data-name="Layer 1" xmlns="http://www.w3.org/2000/svg" viewBox="0 0 250.21 102.86">
  <defs>
    <style>
      .cls-1 {
        fill: #44445b;
      }
    </style>
  </defs>
  <g>
    <path class="cls-1" d="m3.64.76v8.6h10.12V.76h3.6v23h-3.6v-10.76H3.64v10.76H0V.76h3.64Z"/>
    <path class="cls-1" d="m34.38.76v3.6h-9.4v5.04h9.4v3.6h-9.36v7.16h9.36v3.6h-12.96V.76h12.96Z"/>
    <path class="cls-1" d="m41.47.76v19.37h7.31v3.64h-10.94V.76h3.64Z"/>
    <path class="cls-1" d="m55.33.76v19.37h7.31v3.64h-10.94V.76h3.64Z"/>
    <path class="cls-1" d="m76.25,0c2.02.05,3.76.37,5.22.95,1.46.59,2.8,1.49,4,2.72,2.26,2.3,3.38,5.11,3.38,8.42,0,1.85-.31,3.53-.94,5.04s-1.5,2.82-2.63,3.92c-1.13,1.1-2.48,1.96-4.05,2.56-1.57.6-3.31.9-5.2.9s-3.47-.31-5-.94c-1.54-.62-2.86-1.49-3.98-2.61-1.12-1.12-1.99-2.44-2.61-3.96-.62-1.52-.94-3.19-.94-4.99,0-1.7.32-3.29.97-4.75.65-1.46,1.54-2.74,2.66-3.82,1.13-1.08,2.45-1.93,3.98-2.54,1.52-.61,3.17-.92,4.95-.92h.18Zm-.22,3.82c-1.2.05-2.32.31-3.37.77-1.04.47-1.96,1.08-2.74,1.84-.78.76-1.4,1.63-1.85,2.63-.46,1-.68,2.05-.68,3.15s.25,2.2.74,3.22c.49,1.02,1.15,1.92,1.96,2.7.82.78,1.76,1.4,2.83,1.85,1.07.46,2.18.68,3.33.68s2.22-.23,3.28-.68c1.06-.46,1.99-1.07,2.79-1.85.8-.78,1.45-1.67,1.93-2.68.48-1.01.72-2.05.72-3.13s-.23-2.21-.7-3.24c-.47-1.03-1.1-1.94-1.91-2.72s-1.74-1.4-2.81-1.85c-1.07-.46-2.19-.68-3.37-.68h-.14Z"/>
  </g>
  <g>
    <path class="cls-1" d="m3.69,26.79v23H.09v-23h3.6Z"/>
    <path class="cls-1" d="m11.9,26.64v4.36c0,.84-.22,1.71-.67,2.61-.44.9-1.05,1.69-1.82,2.36l-1.76-1.66c.31-.29.58-.55.79-.79.22-.24.4-.49.54-.74.14-.25.26-.53.36-.83.1-.3.18-.65.25-1.06h-1.98v-4.25h4.28Z"/>
    <path class="cls-1" d="m21.4,26.79l6.26,14.94,6.23-14.94h1.33l5.98,23h-3.78l-3.46-13.32h-.07l-5.51,13.32h-1.4l-5.54-13.43h-.07l-3.53,13.43h-3.78l6.01-23h1.33Z"/>
    <path class="cls-1" d="m73.39,49.79h-4.14l-2.63-5.72h-8.78l-2.63,5.72h-4.1l10.33-23h1.51l10.44,23Zm-14.15-8.89h5.98l-3.02-6.55-2.95,6.55Z"/>
    <path class="cls-1" d="m91.31,26.79c2.11,0,3.93.26,5.45.79,1.52.53,2.85,1.34,3.98,2.45,1.08,1.08,1.9,2.33,2.47,3.74.56,1.42.85,2.95.85,4.61,0,3.22-1.1,5.93-3.31,8.14-1.15,1.1-2.47,1.93-3.96,2.47-1.49.54-3.23.81-5.22.81h-6.23v-23h5.98Zm-2.38,19.4c.65,0,1.19-.01,1.64-.04.44-.02.85-.05,1.21-.07.36-.02.7-.07,1.03-.13.32-.06.68-.13,1.06-.2,1.63-.34,2.99-1.04,4.07-2.12.72-.7,1.28-1.52,1.69-2.48.41-.96.61-1.91.61-2.84,0-1.1-.23-2.14-.68-3.1-.46-.96-1.09-1.79-1.89-2.5-.8-.71-1.75-1.27-2.83-1.67-1.08-.41-2.24-.61-3.49-.61h-2.41v15.77Z"/>
    <path class="cls-1" d="m119.72,26.79v3.6h-9.4v5.04h9.4v3.6h-9.36v7.16h9.36v3.6h-12.96v-23h12.96Z"/>
    <path class="cls-1" d="m124.72,26.79l6.7,15.16,6.77-15.16h4.18l-10.3,23h-1.3l-10.22-23h4.18Z"/>
    <path class="cls-1" d="m157.23,26.79v3.6h-9.4v5.04h9.4v3.6h-9.36v7.16h9.36v3.6h-12.96v-23h12.96Z"/>
    <path class="cls-1" d="m164.32,26.79v19.37h7.31v3.64h-10.94v-23h3.64Z"/>
    <path class="cls-1" d="m185.24,26.03c2.02.05,3.76.37,5.22.95,1.46.59,2.8,1.49,4,2.72,2.26,2.3,3.38,5.11,3.38,8.42,0,1.85-.31,3.53-.94,5.04-.62,1.51-1.5,2.82-2.63,3.92-1.13,1.1-2.48,1.96-4.05,2.56-1.57.6-3.31.9-5.2.9s-3.47-.31-5-.94c-1.54-.62-2.86-1.49-3.98-2.61s-1.99-2.44-2.61-3.96-.94-3.19-.94-4.99c0-1.7.32-3.29.97-4.75.65-1.46,1.54-2.74,2.66-3.82,1.13-1.08,2.45-1.93,3.98-2.54,1.52-.61,3.17-.92,4.95-.92h.18Zm-.22,3.82c-1.2.05-2.32.31-3.37.77-1.04.47-1.96,1.08-2.74,1.84-.78.76-1.4,1.63-1.85,2.63-.46,1-.68,2.05-.68,3.15s.25,2.2.74,3.22c.49,1.02,1.15,1.92,1.96,2.7.82.78,1.76,1.4,2.83,1.85,1.07.46,2.18.68,3.33.68s2.22-.23,3.28-.68c1.06-.46,1.99-1.07,2.79-1.85.8-.78,1.45-1.67,1.93-2.68.48-1.01.72-2.05.72-3.13s-.23-2.21-.7-3.24c-.47-1.03-1.1-1.94-1.91-2.72s-1.74-1.4-2.81-1.85c-1.07-.46-2.19-.68-3.37-.68h-.14Z"/>
    <path class="cls-1" d="m207.05,26.79c2.64,0,4.72.61,6.23,1.82,1.51,1.21,2.27,2.87,2.27,4.99,0,1.13-.17,2.08-.52,2.84-.35.77-.94,1.48-1.78,2.12-1.8,1.39-4.02,2.09-6.66,2.09h-.97v9.14h-3.64v-23h5.08Zm-1.48,10.51c1.92-.05,3.41-.39,4.48-1.03,1.07-.64,1.6-1.51,1.6-2.61,0-.7-.24-1.33-.72-1.91-.48-.58-1.13-1-1.94-1.26-.43-.12-.89-.21-1.37-.27-.48-.06-1.16-.09-2.05-.09v7.16Z"/>
    <path class="cls-1" d="m231.96,26.79v3.6h-9.4v5.04h9.4v3.6h-9.36v7.16h9.36v3.6h-12.96v-23h12.96Z"/>
    <path class="cls-1" d="m240.89,26.79c1.22,0,2.34.16,3.35.47,1.01.31,1.87.76,2.59,1.33.72.58,1.28,1.27,1.67,2.09.4.82.59,1.73.59,2.74,0,2.14-.67,3.78-2.02,4.93-.26.22-.51.4-.74.56-.23.16-.47.3-.74.43-.26.13-.57.26-.92.4-.35.13-.77.27-1.28.41l6.55,9.65h-4.57l-6.19-9.22h-.07v9.22h-3.64v-23h5.4Zm-1.76,3.35v7.13c2.02-.02,3.54-.34,4.57-.95,1.03-.61,1.55-1.49,1.55-2.65,0-1.08-.5-1.94-1.49-2.59-1-.65-2.32-.97-3.98-.97h-.65v.04Z"/>
  </g>
  <g>
    <path class="cls-1" d="m73.89,52.85v19.37h7.31v3.64h-10.94v-23h3.64Z"/>
    <path class="cls-1" d="m96.42,52.85v3.6h-9.4v5.04h9.4v3.6h-9.36v7.16h9.36v3.6h-12.96v-23h12.96Z"/>
    <path class="cls-1" d="m112.37,52.85v3.64h-5.36v19.37h-3.6v-19.37h-5.36v-3.64h14.33Z"/>
    <path class="cls-1" d="m119.14,52.71v4.36c0,.84-.22,1.71-.67,2.61-.44.9-1.05,1.69-1.82,2.36l-1.76-1.66c.31-.29.58-.55.79-.79s.4-.49.54-.74.26-.53.36-.83c.1-.3.18-.65.25-1.06h-1.98v-4.25h4.28Z"/>
    <path class="cls-1" d="m125.72,68.8c.24.6.44,1.05.61,1.35.17.3.41.62.72.95.48.53,1.03.94,1.64,1.22.61.29,1.22.43,1.82.43.46,0,.89-.09,1.31-.27.42-.18.8-.41,1.13-.7.34-.29.61-.62.81-1.01.2-.38.31-.78.31-1.19,0-.36-.12-.77-.36-1.22-.24-.46-.54-.88-.9-1.26-.36-.34-.79-.65-1.3-.94s-1.24-.64-2.2-1.04c-1.25-.53-2.22-1.01-2.92-1.44-.7-.43-1.28-.92-1.76-1.48-.91-1.08-1.37-2.41-1.37-4,0-.91.17-1.75.5-2.5.34-.76.81-1.4,1.42-1.94.61-.54,1.34-.95,2.2-1.24.85-.29,1.81-.43,2.86-.43.77,0,1.49.07,2.16.2.67.13,1.32.35,1.94.67.36.17.67.33.94.49.26.16.52.34.77.54.25.2.51.44.77.72.26.28.56.61.9.99l-3.2,2.52c-.84-.84-1.55-1.43-2.14-1.76-.59-.34-1.24-.5-1.96-.5-.43,0-.84.07-1.22.2-.38.13-.73.31-1.03.52-.3.22-.54.46-.72.74-.18.28-.27.57-.27.88,0,.55.28,1.06.85,1.53.56.47,1.55,1,2.97,1.6,1.39.62,2.5,1.19,3.31,1.71.82.52,1.5,1.1,2.05,1.75,1.03,1.27,1.55,2.84,1.55,4.72,0,1.06-.17,2.02-.52,2.88-.35.86-.84,1.6-1.48,2.21-.64.61-1.4,1.09-2.29,1.42-.89.34-1.87.5-2.95.5-2.71,0-4.9-.88-6.55-2.63-.26-.29-.49-.56-.68-.81-.19-.25-.37-.53-.54-.85-.17-.31-.34-.66-.5-1.04-.17-.38-.36-.85-.58-1.4l3.89-1.08Z"/>
    <path class="cls-1" d="m167.74,52.85l6.44,14.94,6.44-14.94h4.1l-9.9,23h-1.26l-6.59-15.12-6.52,15.12h-1.33l-9.86-23h4.1l6.44,15.05,6.44-15.05h1.48Z"/>
    <path class="cls-1" d="m198.16,52.1c2.02.05,3.76.37,5.22.95s2.8,1.49,4,2.72c2.26,2.3,3.38,5.11,3.38,8.42,0,1.85-.31,3.53-.94,5.04-.62,1.51-1.5,2.82-2.63,3.92-1.13,1.1-2.48,1.96-4.05,2.56-1.57.6-3.31.9-5.2.9s-3.47-.31-5-.94c-1.54-.62-2.86-1.49-3.98-2.61-1.12-1.12-1.99-2.44-2.61-3.96-.62-1.52-.94-3.19-.94-4.99,0-1.7.32-3.29.97-4.75.65-1.46,1.54-2.74,2.66-3.82s2.45-1.93,3.98-2.54c1.52-.61,3.17-.92,4.95-.92h.18Zm-.22,3.82c-1.2.05-2.32.31-3.37.77s-1.96,1.08-2.74,1.84-1.4,1.63-1.85,2.63c-.46,1-.68,2.05-.68,3.15s.25,2.2.74,3.22c.49,1.02,1.15,1.92,1.96,2.7.82.78,1.76,1.4,2.83,1.85,1.07.46,2.18.68,3.33.68s2.22-.23,3.28-.68c1.06-.46,1.99-1.07,2.79-1.85.8-.78,1.45-1.67,1.93-2.68.48-1.01.72-2.05.72-3.13s-.23-2.21-.7-3.24-1.1-1.94-1.91-2.72c-.8-.78-1.74-1.4-2.81-1.85-1.07-.46-2.19-.68-3.37-.68h-.14Z"/>
    <path class="cls-1" d="m220.04,52.85c1.22,0,2.34.16,3.35.47,1.01.31,1.87.76,2.59,1.33.72.58,1.28,1.27,1.67,2.09.39.82.59,1.73.59,2.74,0,2.14-.67,3.78-2.02,4.93-.27.22-.51.4-.74.56-.23.16-.47.3-.74.43s-.57.26-.92.4-.77.27-1.28.41l6.55,9.65h-4.57l-6.19-9.22h-.07v9.22h-3.64v-23h5.4Zm-1.76,3.35v7.13c2.02-.02,3.54-.34,4.57-.95,1.03-.61,1.55-1.49,1.55-2.65,0-1.08-.5-1.94-1.49-2.59-1-.65-2.32-.97-3.98-.97h-.65v.04Z"/>
    <path class="cls-1" d="m235.81,52.85v8.5l8.86-8.5h5.54l-11.12,10.73,11.12,12.28h-5.15l-9.25-10.15v10.15h-3.6v-23h3.6Z"/>
  </g>
  <g>
    <path class="cls-1" d="m107.74,79.03v3.64h-5.36v19.37h-3.6v-19.37h-5.36v-3.64h14.33Z"/>
    <path class="cls-1" d="m121.71,78.27c2.02.05,3.76.37,5.22.95,1.46.59,2.8,1.49,4,2.72,2.26,2.3,3.38,5.11,3.38,8.42,0,1.85-.31,3.53-.94,5.04-.62,1.51-1.5,2.82-2.63,3.92-1.13,1.1-2.48,1.96-4.05,2.56-1.57.6-3.31.9-5.2.9s-3.47-.31-5-.94c-1.54-.62-2.86-1.49-3.98-2.61-1.12-1.12-1.99-2.44-2.61-3.96-.62-1.52-.94-3.19-.94-4.99,0-1.7.32-3.29.97-4.75.65-1.46,1.54-2.74,2.66-3.82,1.13-1.08,2.45-1.93,3.98-2.54,1.52-.61,3.17-.92,4.95-.92h.18Zm-.22,3.82c-1.2.05-2.32.31-3.37.77s-1.96,1.08-2.74,1.84c-.78.76-1.4,1.63-1.85,2.63-.46,1-.68,2.05-.68,3.15s.25,2.2.74,3.22c.49,1.02,1.15,1.92,1.96,2.7.82.78,1.76,1.4,2.83,1.85,1.07.46,2.18.68,3.33.68s2.22-.23,3.28-.68c1.06-.46,1.99-1.07,2.79-1.85.8-.78,1.45-1.67,1.93-2.68.48-1.01.72-2.05.72-3.13s-.23-2.21-.7-3.24-1.1-1.94-1.91-2.72c-.8-.78-1.74-1.4-2.81-1.85-1.07-.46-2.19-.68-3.37-.68h-.14Z"/>
    <path class="cls-1" d="m162.06,90.15v1.19c0,1.73-.29,3.3-.88,4.72s-1.41,2.63-2.47,3.64c-1.06,1.01-2.33,1.79-3.82,2.34s-3.14.83-4.97.83c-4.06,0-7.27-1.19-9.65-3.56s-3.56-5.27-3.56-8.68c0-1.85.31-3.53.94-5.06.62-1.52,1.5-2.83,2.63-3.91,1.13-1.08,2.49-1.92,4.09-2.52,1.6-.6,3.35-.9,5.27-.9,2.83,0,5.4.74,7.7,2.23.29.19.54.36.76.5.22.14.43.31.65.49.22.18.44.38.68.61.24.23.52.5.83.81l-2.88,2.92c-.36-.36-.68-.67-.97-.94-.29-.26-.57-.49-.85-.68s-.56-.37-.86-.54c-.3-.17-.65-.35-1.06-.54-.72-.31-1.45-.55-2.18-.72s-1.42-.25-2.07-.25c-1.2,0-2.33.23-3.38.68-1.06.46-1.99,1.07-2.79,1.84-.8.77-1.44,1.66-1.91,2.68-.47,1.02-.7,2.11-.7,3.26s.25,2.23.74,3.24c.49,1.01,1.15,1.9,1.98,2.66.83.77,1.8,1.37,2.92,1.82,1.12.44,2.3.67,3.55.67,2.54,0,4.62-.8,6.23-2.41.38-.38.69-.77.92-1.15.23-.38.5-.92.81-1.62h-5.87v-3.64h10.19Z"/>
    <path class="cls-1" d="m178.59,79.03v3.6h-9.4v5.04h9.4v3.6h-9.36v7.16h9.36v3.6h-12.96v-23h12.96Z"/>
    <path class="cls-1" d="m194.54,79.03v3.64h-5.36v19.37h-3.6v-19.37h-5.36v-3.64h14.33Z"/>
    <path class="cls-1" d="m201.12,79.03v8.6h10.12v-8.6h3.6v23h-3.6v-10.76h-10.12v10.76h-3.64v-23h3.64Z"/>
    <path class="cls-1" d="m231.87,79.03v3.6h-9.4v5.04h9.4v3.6h-9.36v7.16h9.36v3.6h-12.96v-23h12.96Z"/>
    <path class="cls-1" d="m240.8,79.03c1.22,0,2.34.16,3.35.47,1.01.31,1.87.76,2.59,1.33.72.58,1.28,1.27,1.67,2.09.39.82.59,1.73.59,2.74,0,2.14-.67,3.78-2.02,4.93-.27.22-.51.4-.74.56-.23.16-.47.3-.74.43s-.57.26-.92.4-.77.27-1.28.41l6.55,9.65h-4.57l-6.19-9.22h-.07v9.22h-3.64v-23h5.4Zm-1.76,3.35v7.13c2.02-.02,3.54-.34,4.57-.95,1.03-.61,1.55-1.49,1.55-2.65,0-1.08-.5-1.94-1.49-2.59-1-.65-2.32-.97-3.98-.97h-.65v.04Z"/>
  </g>
</svg>