<?xml version="1.0" encoding="UTF-8"?>
<svg id="Layer_1" data-name="Layer 1" xmlns="http://www.w3.org/2000/svg" viewBox="0 0 308.82 100.73">
  <defs>
    <style>
      .cls-1 {
        fill: #5e5237;
      }
    </style>
  </defs>
  <g>
    <path class="cls-1" d="m13.82.76v3.6H4.43v5.04h9.4v3.6H4.46v7.16h9.36v3.6H.86V.76h12.96Z"/>
    <path class="cls-1" d="m20.02.76l4.64,7.6L29.27.76h4.46l-6.88,11.3,7.09,11.7h-4.43l-4.86-8.06-4.9,8.06h-4.43l7.09-11.74L15.59.76h4.43Z"/>
    <path class="cls-1" d="m42.55.76c2.64,0,4.72.61,6.23,1.82,1.51,1.21,2.27,2.87,2.27,4.99,0,1.13-.17,2.08-.52,2.84-.35.77-.94,1.48-1.78,2.12-1.8,1.39-4.02,2.09-6.66,2.09h-.97v9.14h-3.64V.76h5.08Zm-1.48,10.51c1.92-.05,3.41-.39,4.48-1.03,1.07-.64,1.6-1.51,1.6-2.61,0-.7-.24-1.33-.72-1.91-.48-.58-1.13-1-1.94-1.26-.43-.12-.89-.21-1.37-.27-.48-.06-1.16-.09-2.05-.09v7.16Z"/>
    <path class="cls-1" d="m58.79.76v19.37h7.31v3.64h-10.94V.76h3.64Z"/>
    <path class="cls-1" d="m79.7,0c2.02.05,3.76.37,5.22.95,1.46.59,2.8,1.49,4,2.72,2.26,2.3,3.38,5.11,3.38,8.42,0,1.85-.31,3.53-.94,5.04s-1.5,2.82-2.63,3.92c-1.13,1.1-2.48,1.96-4.05,2.56-1.57.6-3.31.9-5.2.9s-3.47-.31-5-.94c-1.54-.62-2.86-1.49-3.98-2.61-1.12-1.12-1.99-2.44-2.61-3.96-.62-1.52-.94-3.19-.94-4.99,0-1.7.32-3.29.97-4.75.65-1.46,1.54-2.74,2.66-3.82,1.13-1.08,2.45-1.93,3.98-2.54,1.52-.61,3.17-.92,4.95-.92h.18Zm-.22,3.82c-1.2.05-2.32.31-3.37.77-1.04.47-1.96,1.08-2.74,1.84-.78.76-1.4,1.63-1.85,2.63-.46,1-.68,2.05-.68,3.15s.25,2.2.74,3.22c.49,1.02,1.15,1.92,1.96,2.7.82.78,1.76,1.4,2.83,1.85,1.07.46,2.18.68,3.33.68s2.22-.23,3.28-.68c1.06-.46,1.99-1.07,2.79-1.85.8-.78,1.45-1.67,1.93-2.68.48-1.01.72-2.05.72-3.13s-.23-2.21-.7-3.24c-.47-1.03-1.1-1.94-1.91-2.72s-1.74-1.4-2.81-1.85c-1.07-.46-2.19-.68-3.37-.68h-.14Z"/>
    <path class="cls-1" d="m101.59.76c1.22,0,2.34.16,3.35.47,1.01.31,1.87.76,2.59,1.33.72.58,1.28,1.27,1.67,2.09.4.82.59,1.73.59,2.74,0,2.14-.67,3.78-2.02,4.93-.26.22-.51.4-.74.56-.23.16-.47.3-.74.43-.26.13-.57.26-.92.4-.35.13-.77.27-1.28.41l6.55,9.65h-4.57l-6.19-9.22h-.07v9.22h-3.64V.76h5.4Zm-1.76,3.35v7.13c2.02-.02,3.54-.34,4.57-.95,1.03-.61,1.55-1.49,1.55-2.65,0-1.08-.5-1.94-1.49-2.59-1-.65-2.32-.97-3.98-.97h-.65v.04Z"/>
    <path class="cls-1" d="m126.43.76v3.6h-9.4v5.04h9.4v3.6h-9.36v7.16h9.36v3.6h-12.96V.76h12.96Z"/>
  </g>
  <g>
    <path class="cls-1" d="m19.8,48.97c-.72.41-1.39.71-2,.92-.61.2-1.3.37-2.07.49-.41.07-.87.13-1.39.16-.52.04-1.01.05-1.49.05-1.85,0-3.56-.31-5.13-.92-1.57-.61-2.93-1.46-4.07-2.56-1.14-1.09-2.03-2.39-2.68-3.89s-.97-3.13-.97-4.88.32-3.41.95-4.91,1.52-2.8,2.66-3.91c1.14-1.1,2.48-1.96,4.03-2.57,1.55-.61,3.25-.92,5.09-.92,2.5,0,4.85.5,7.06,1.51v4.43c-2.64-1.37-4.96-2.05-6.95-2.05-1.22,0-2.38.22-3.46.67-1.08.44-2.03,1.05-2.84,1.82-.82.77-1.46,1.66-1.94,2.68-.48,1.02-.72,2.11-.72,3.26s.25,2.23.74,3.24c.49,1.01,1.16,1.9,2,2.66.84.77,1.81,1.37,2.92,1.82,1.1.44,2.28.67,3.53.67,1.01,0,2.05-.19,3.13-.56,1.08-.37,2.28-.95,3.6-1.75v4.54Z"/>
    <path class="cls-1" d="m26.42,26.79v23h-3.6v-23h3.6Z"/>
    <path class="cls-1" d="m43.63,26.79v3.64h-5.36v19.37h-3.6v-19.37h-5.36v-3.64h14.33Z"/>
    <path class="cls-1" d="m50.07,26.79v23h-3.6v-23h3.6Z"/>
    <path class="cls-1" d="m67.28,26.79v3.64h-5.36v19.37h-3.6v-19.37h-5.36v-3.64h14.33Z"/>
    <path class="cls-1" d="m82.87,26.79v3.6h-9.4v5.04h9.4v3.6h-9.36v7.16h9.36v3.6h-12.96v-23h12.96Z"/>
    <path class="cls-1" d="m88.52,42.74c.24.6.44,1.05.61,1.35.17.3.41.62.72.95.48.53,1.03.94,1.64,1.22.61.29,1.22.43,1.82.43.46,0,.89-.09,1.31-.27.42-.18.8-.41,1.13-.7.34-.29.61-.62.81-1.01.2-.38.31-.78.31-1.19,0-.36-.12-.77-.36-1.22-.24-.46-.54-.88-.9-1.26-.36-.34-.79-.65-1.3-.94s-1.24-.64-2.2-1.04c-1.25-.53-2.22-1.01-2.92-1.44-.7-.43-1.28-.92-1.76-1.48-.91-1.08-1.37-2.41-1.37-4,0-.91.17-1.75.5-2.5.34-.76.81-1.4,1.42-1.94.61-.54,1.34-.95,2.2-1.24.85-.29,1.81-.43,2.86-.43.77,0,1.49.07,2.16.2.67.13,1.32.35,1.94.67.36.17.67.33.94.49.26.16.52.34.77.54.25.2.51.44.77.72.26.28.56.61.9.99l-3.2,2.52c-.84-.84-1.55-1.43-2.14-1.76-.59-.34-1.24-.5-1.96-.5-.43,0-.84.07-1.22.2-.38.13-.73.31-1.03.52-.3.22-.54.46-.72.74-.18.28-.27.57-.27.88,0,.55.28,1.06.85,1.53.56.47,1.55,1,2.97,1.6,1.39.62,2.5,1.19,3.31,1.71.82.52,1.5,1.1,2.05,1.75,1.03,1.27,1.55,2.84,1.55,4.72,0,1.06-.17,2.02-.52,2.88-.35.86-.84,1.6-1.48,2.21-.64.61-1.4,1.09-2.29,1.42-.89.34-1.87.5-2.95.5-2.71,0-4.9-.88-6.55-2.63-.26-.29-.49-.56-.68-.81-.19-.25-.37-.53-.54-.85-.17-.31-.34-.66-.5-1.04-.17-.38-.36-.85-.58-1.4l3.89-1.08Z"/>
    <path class="cls-1" d="m126.57,26.79v3.6h-9.4v5.04h9.4v3.6h-9.36v7.16h9.36v3.6h-12.96v-23h12.96Z"/>
    <path class="cls-1" d="m131.58,26.79l6.7,15.16,6.77-15.16h4.18l-10.3,23h-1.3l-10.22-23h4.18Z"/>
    <path class="cls-1" d="m164.08,26.79v3.6h-9.4v5.04h9.4v3.6h-9.36v7.16h9.36v3.6h-12.96v-23h12.96Z"/>
    <path class="cls-1" d="m173.01,26.79c1.22,0,2.34.16,3.35.47,1.01.31,1.87.76,2.59,1.33.72.58,1.28,1.27,1.67,2.09.4.82.59,1.73.59,2.74,0,2.14-.67,3.78-2.02,4.93-.26.22-.51.4-.74.56-.23.16-.47.3-.74.43s-.57.26-.92.4c-.35.13-.77.27-1.28.41l6.55,9.65h-4.57l-6.19-9.22h-.07v9.22h-3.64v-23h5.4Zm-1.76,3.35v7.13c2.02-.02,3.54-.34,4.57-.95,1.03-.61,1.55-1.49,1.55-2.65,0-1.08-.5-1.94-1.49-2.59-1-.65-2.32-.97-3.98-.97h-.65v.04Z"/>
    <path class="cls-1" d="m186.8,26.79l5.18,8.46,5.11-8.46h4.43l-7.74,12.82v10.19h-3.6v-10.19l-7.78-12.82h4.39Z"/>
    <path class="cls-1" d="m220.71,26.79l6.44,14.94,6.44-14.94h4.1l-9.9,23h-1.26l-6.59-15.12-6.52,15.12h-1.33l-9.86-23h4.1l6.44,15.05,6.44-15.05h1.48Z"/>
    <path class="cls-1" d="m243.75,26.79v8.6h10.12v-8.6h3.6v23h-3.6v-10.76h-10.12v10.76h-3.64v-23h3.64Z"/>
    <path class="cls-1" d="m274.5,26.79v3.6h-9.4v5.04h9.4v3.6h-9.36v7.16h9.36v3.6h-12.96v-23h12.96Z"/>
    <path class="cls-1" d="m283.42,26.79c1.22,0,2.34.16,3.35.47,1.01.31,1.87.76,2.59,1.33.72.58,1.28,1.27,1.67,2.09.4.82.59,1.73.59,2.74,0,2.14-.67,3.78-2.02,4.93-.26.22-.51.4-.74.56-.23.16-.47.3-.74.43s-.57.26-.92.4c-.35.13-.77.27-1.28.41l6.55,9.65h-4.57l-6.19-9.22h-.07v9.22h-3.64v-23h5.4Zm-1.76,3.35v7.13c2.02-.02,3.54-.34,4.57-.95,1.03-.61,1.55-1.49,1.55-2.65,0-1.08-.5-1.94-1.49-2.59-1-.65-2.32-.97-3.98-.97h-.65v.04Z"/>
    <path class="cls-1" d="m308.26,26.79v3.6h-9.4v5.04h9.4v3.6h-9.36v7.16h9.36v3.6h-12.96v-23h12.96Z"/>
  </g>
  <g>
    <path class="cls-1" d="m185.63,52.72v3.64h-5.36v19.37h-3.6v-19.37h-5.36v-3.64h14.33Z"/>
    <path class="cls-1" d="m192.22,52.72v8.6h10.12v-8.6h3.6v23h-3.6v-10.76h-10.12v10.76h-3.64v-23h3.64Z"/>
    <path class="cls-1" d="m222.96,52.72v3.6h-9.4v5.04h9.4v3.6h-9.36v7.16h9.36v3.6h-12.96v-23h12.96Z"/>
    <path class="cls-1" d="m248.66,52.72v3.6h-9.4v5.04h9.4v3.6h-9.36v7.16h9.36v3.6h-12.96v-23h12.96Z"/>
    <path class="cls-1" d="m271.52,75.73h-4.14l-2.63-5.72h-8.78l-2.63,5.72h-4.1l10.33-23h1.51l10.44,23Zm-14.15-8.89h5.98l-3.02-6.55-2.95,6.55Z"/>
    <path class="cls-1" d="m276.06,68.67c.24.6.44,1.05.61,1.35.17.3.41.62.72.95.48.53,1.03.94,1.64,1.22.61.29,1.22.43,1.82.43.46,0,.89-.09,1.31-.27.42-.18.8-.41,1.13-.7s.61-.62.81-1.01c.2-.38.31-.78.31-1.19,0-.36-.12-.77-.36-1.22s-.54-.88-.9-1.26c-.36-.34-.79-.65-1.3-.94s-1.24-.64-2.2-1.04c-1.25-.53-2.22-1.01-2.92-1.44-.7-.43-1.28-.92-1.76-1.48-.91-1.08-1.37-2.41-1.37-4,0-.91.17-1.75.5-2.5.34-.76.81-1.4,1.42-1.94s1.34-.95,2.2-1.24c.85-.29,1.81-.43,2.86-.43.77,0,1.49.07,2.16.2.67.13,1.32.35,1.94.67.36.17.67.33.94.49.26.16.52.34.77.54.25.2.51.44.77.72.26.28.56.61.9.99l-3.2,2.52c-.84-.84-1.55-1.43-2.14-1.76-.59-.34-1.24-.5-1.96-.5-.43,0-.84.07-1.22.2-.38.13-.73.31-1.03.52-.3.22-.54.46-.72.74-.18.28-.27.57-.27.88,0,.55.28,1.06.85,1.53.56.47,1.55,1,2.97,1.6,1.39.62,2.5,1.19,3.31,1.71.82.52,1.5,1.1,2.05,1.75,1.03,1.27,1.55,2.84,1.55,4.72,0,1.06-.17,2.02-.52,2.88-.35.86-.84,1.6-1.48,2.21-.64.61-1.4,1.09-2.29,1.42-.89.34-1.87.5-2.95.5-2.71,0-4.9-.88-6.55-2.63-.26-.29-.49-.56-.68-.81s-.37-.53-.54-.85-.34-.66-.5-1.04-.36-.85-.58-1.4l3.89-1.08Z"/>
    <path class="cls-1" d="m294.1,52.72l5.18,8.46,5.11-8.46h4.43l-7.74,12.82v10.19h-3.6v-10.19l-7.78-12.82h4.39Z"/>
  </g>
  <g>
    <path class="cls-1" d="m255.27,77.72l6.44,14.94,6.44-14.94h4.1l-9.9,23h-1.26l-6.59-15.12-6.52,15.12h-1.33l-9.86-23h4.1l6.44,15.05,6.44-15.05h1.48Z"/>
    <path class="cls-1" d="m292.1,100.73h-4.14l-2.63-5.72h-8.78l-2.63,5.72h-4.1l10.33-23h1.51l10.44,23Zm-14.15-8.89h5.98l-3.02-6.55-2.95,6.55Z"/>
    <path class="cls-1" d="m294.04,77.72l5.18,8.46,5.11-8.46h4.43l-7.74,12.82v10.19h-3.6v-10.19l-7.78-12.82h4.39Z"/>
  </g>
</svg>